<svg width="80" height="80" viewBox="0 0 80 80" fill="none" xmlns="http://www.w3.org/2000/svg">
<rect width="80" height="80" rx="40" fill="white"/>
<path fill-rule="evenodd" clip-rule="evenodd" d="M52.1745 31.855C52.1745 32.9927 50.2348 33.5944 48.1818 33.6609C48.1667 33.6615 48.1517 33.6584 48.138 33.6518C48.1244 33.6453 48.1125 33.6356 48.1034 33.6235C48.0943 33.6114 48.0883 33.5973 48.0859 33.5823C48.0834 33.5674 48.0846 33.5521 48.0894 33.5377C48.1788 33.2641 48.2281 32.9684 48.2281 32.6493C48.2281 30.8235 47.6328 29.1365 46.6262 27.7715C46.617 27.7592 46.611 27.7448 46.6087 27.7297C46.6064 27.7145 46.6079 27.699 46.613 27.6845C46.6181 27.67 46.6266 27.657 46.6379 27.6466C46.6492 27.6362 46.6629 27.6288 46.6777 27.6249C47.0436 27.5282 47.4205 27.4794 47.799 27.4796C50.2156 27.4796 52.1745 29.4386 52.1745 31.855ZM46.9157 32.6493C46.9157 28.8302 43.8196 25.7341 40.0004 25.7341C36.1811 25.7341 33.0845 28.8303 33.0845 32.6493C33.0845 36.4686 46.9157 36.4686 46.9157 32.6493ZM36.8041 20.6958C36.8041 22.4611 38.2351 23.8921 40.0004 23.8921C41.7657 23.8921 43.1966 22.4611 43.1966 20.6958C43.1966 18.9309 41.7657 17.5 40.0004 17.5C38.2351 17.5 36.8041 18.931 36.8041 20.6958ZM61.0221 43.7279C56.5912 43.7279 54.3681 49.0958 57.501 52.2288C58.0781 52.8059 58.0781 53.742 57.501 54.3191L54.319 57.5011C53.7419 58.0782 52.8058 58.0782 52.2287 57.5011C49.0957 54.3681 43.7278 56.5913 43.7278 61.0222C43.7278 61.8388 43.0659 62.5002 42.2498 62.5002H37.75C36.9339 62.5002 36.272 61.8388 36.272 61.0222C36.272 56.5859 30.9081 54.3643 27.7712 57.5011C27.1941 58.0782 26.2581 58.0782 25.681 57.5011L22.499 54.3191C21.9219 53.742 21.9219 52.806 22.499 52.2288C25.632 49.0958 23.4088 43.7279 18.978 43.7279C18.1614 43.7279 17.5 43.066 17.5 42.2499V40.1877C17.5001 40.1379 17.52 40.0902 17.5552 40.0551C17.5904 40.0199 17.6381 40.0001 17.6879 40H28.8187C28.9211 40 29.0045 40.0823 29.0062 40.1847C29.1048 46.1721 33.9891 50.9954 40.0001 50.9954C46.011 50.9954 50.8953 46.172 50.994 40.1847C50.9957 40.0825 51.0793 40 51.1815 40H62.3123C62.4157 40 62.5001 40.0844 62.5001 40.1878V42.25C62.5001 43.066 61.8387 43.7279 61.0221 43.7279ZM59.8596 35.5218L58.3592 35.5468L58.3664 38.6875H57.0589L57.0502 34.9141C57.0489 34.8282 57.0644 34.743 57.096 34.6631C57.1276 34.5833 57.1747 34.5105 57.2344 34.4488C57.2942 34.3872 57.3655 34.3379 57.4443 34.3038C57.523 34.2697 57.6078 34.2515 57.6936 34.2501L59.8377 34.2144C60.0693 33.7557 60.5448 33.4411 61.0937 33.4411C61.8703 33.4411 62.4999 34.0707 62.4999 34.8473C62.4999 35.6239 61.8703 36.2536 61.0937 36.2536C60.5615 36.2536 60.0984 35.9579 59.8596 35.5218ZM18.9063 36.2536C19.4386 36.2536 19.9018 35.9579 20.1406 35.5218L21.641 35.5468L21.6337 38.6875H22.9412L22.9499 34.9141C22.9512 34.8282 22.9357 34.743 22.9041 34.6631C22.8725 34.5833 22.8254 34.5105 22.7657 34.4488C22.7059 34.3872 22.6346 34.3379 22.5558 34.3038C22.477 34.2697 22.3923 34.2515 22.3065 34.2501L20.1624 34.2144C19.9307 33.7557 19.4553 33.4411 18.9063 33.4411C18.1297 33.4411 17.5001 34.0707 17.5001 34.8473C17.5001 35.624 18.1297 36.2536 18.9063 36.2536ZM58.3582 31.97C59.1348 31.97 59.7645 31.3404 59.7645 30.5638C59.7645 29.7872 59.1348 29.1575 58.3582 29.1575C57.8186 29.1575 57.35 29.4616 57.1143 29.9075H54.426C54.0393 29.9075 53.7714 30.2383 53.7724 30.6237L53.7959 38.6875H55.1032L55.0816 31.22H57.1143C57.35 31.666 57.8186 31.97 58.3582 31.97ZM21.642 31.97C20.8653 31.97 20.2357 31.3404 20.2357 30.5638C20.2357 29.7872 20.8653 29.1575 21.642 29.1575C22.1816 29.1575 22.6502 29.4616 22.8859 29.9075H25.5742C25.9608 29.9075 26.2289 30.2383 26.2277 30.6237L26.2043 38.6875H24.8969L24.9185 31.22H22.8858C22.6501 31.666 22.1815 31.97 21.642 31.97ZM47.8986 40.1923C47.8993 40.1672 47.895 40.1423 47.8859 40.1189C47.8767 40.0956 47.863 40.0743 47.8455 40.0564C47.828 40.0384 47.807 40.0242 47.7839 40.0145C47.7608 40.0048 47.7359 39.9999 47.7108 40H32.2893C32.1831 40 32.0989 40.0862 32.1015 40.1923C32.2036 44.467 35.7008 47.9009 40.0001 47.9009C44.2994 47.9009 47.7966 44.467 47.8986 40.1923ZM31.8183 33.6609C29.7654 33.5944 27.8257 32.9927 27.8257 31.855C27.8257 29.4386 29.785 27.4796 32.2014 27.4796C32.589 27.4796 32.9647 27.5302 33.3226 27.6249C33.3374 27.6288 33.3511 27.6362 33.3624 27.6466C33.3737 27.657 33.3822 27.67 33.3873 27.6845C33.3924 27.699 33.3939 27.7145 33.3916 27.7297C33.3893 27.7448 33.3833 27.7592 33.3741 27.7715C32.3673 29.1365 31.772 30.8234 31.772 32.6493C31.772 32.9684 31.8213 33.2641 31.9107 33.5377C31.9154 33.5521 31.9167 33.5674 31.9142 33.5823C31.9118 33.5972 31.9058 33.6113 31.8967 33.6234C31.8876 33.6356 31.8758 33.6453 31.8621 33.6518C31.8485 33.6583 31.8335 33.6614 31.8183 33.6609ZM30.179 24.2919C30.179 23.1753 31.0845 22.2699 32.2013 22.2699C33.3183 22.2699 34.2236 23.1753 34.2236 24.2919C34.2236 25.4088 33.3183 26.3142 32.2013 26.3142C31.0845 26.3142 30.179 25.4088 30.179 24.2919ZM45.7768 24.2919C45.7768 23.1753 46.6822 22.2699 47.7991 22.2699C48.916 22.2699 49.8213 23.1753 49.8213 24.2919C49.8213 25.4088 48.916 26.3142 47.7991 26.3142C46.6822 26.3142 45.7768 25.4088 45.7768 24.2919Z" fill="#007ABB"/>
</svg>
