<svg width="80" height="80" viewBox="0 0 80 80" fill="none" xmlns="http://www.w3.org/2000/svg">
<rect width="80" height="80" rx="40" fill="white"/>
<path d="M27.0799 52.5886C27.3329 52.8806 27.6416 53.1192 27.988 53.2904C28.3343 53.4617 28.7113 53.5622 29.0969 53.586C29.4826 53.6099 29.8691 53.5566 30.2339 53.4294C30.5987 53.3022 30.9345 53.1035 31.2216 52.845C31.5087 52.5864 31.7414 52.2733 31.9061 51.9238C32.0708 51.5743 32.1642 51.1955 32.1808 50.8095C32.1974 50.4235 32.1369 50.038 32.0028 49.6757C31.8687 49.3133 31.6637 48.9814 31.3999 48.6991L23.5669 39.9991L31.3969 31.2991C31.9121 30.7259 32.1789 29.9717 32.1386 29.202C32.0984 28.4324 31.7545 27.7101 31.1824 27.1936C30.8998 26.9367 30.5688 26.7387 30.2087 26.6115C29.8485 26.4842 29.4666 26.4302 29.0854 26.4526C28.7043 26.4713 28.3307 26.5654 27.9862 26.7294C27.6417 26.8934 27.3331 27.1241 27.0784 27.4081L17.4979 38.0551C17.0165 38.5885 16.75 39.2814 16.75 39.9999C16.75 40.7184 17.0165 41.4113 17.4979 41.9446L27.0799 52.5886ZM52.9219 27.4081C52.4055 26.8364 51.6835 26.4928 50.9142 26.4526C50.1449 26.4124 49.391 26.6789 48.8179 27.1936C48.2461 27.7103 47.9024 28.4325 47.8622 29.2021C47.822 29.9716 48.0885 30.7258 48.6034 31.2991L56.4334 39.9991L48.6034 48.6991C48.1046 49.2746 47.8515 50.0227 47.8985 50.7828C47.9456 51.5428 48.289 52.2541 48.8549 52.7636C49.4208 53.2731 50.1641 53.5402 50.9249 53.5075C51.6857 53.4748 52.4033 53.1449 52.9234 52.5886L62.5039 41.9431C62.9851 41.41 63.2516 40.7174 63.2516 39.9991C63.2516 39.2809 62.9851 38.5882 62.5039 38.0551L52.9219 27.4081ZM45.0919 19.2631H45.0889C44.3409 19.0824 43.5518 19.205 42.8939 19.604C42.236 20.0031 41.7627 20.6463 41.5774 21.3931L32.7814 57.2206C32.6772 57.6485 32.6714 58.0944 32.7646 58.5248C32.8578 58.9552 33.0474 59.3588 33.3192 59.7053C33.591 60.0517 33.9379 60.332 34.3337 60.5249C34.7295 60.7179 35.164 60.8185 35.6044 60.8191C36.9454 60.8191 38.1049 59.9086 38.4244 58.6051L47.2204 22.7776C47.4029 22.0294 47.2813 21.2393 46.8823 20.5806C46.4834 19.9218 45.8395 19.448 45.0919 19.2631Z" fill="#007ABB"/>
</svg>
