<svg width="80" height="80" viewBox="0 0 80 80" fill="none" xmlns="http://www.w3.org/2000/svg">
<rect width="80" height="80" rx="40" fill="white"/>
<path d="M58.5644 47.4756C57.9485 47.4768 57.3498 47.6788 56.8592 48.0511C56.3685 48.4233 56.0127 48.9454 55.8456 49.5381H53.1503V46.7106C54.5644 46.1676 55.7807 45.2086 56.6386 43.9602C57.4965 42.7118 57.9558 41.2326 57.9558 39.7178C57.9558 38.203 57.4965 36.7238 56.6386 35.4754C55.7807 34.227 54.5644 33.268 53.1503 32.725V31.4913H55.8456C56.0323 32.1498 56.4509 32.7186 57.0241 33.0927C57.5973 33.4668 58.2865 33.621 58.9645 33.5268C59.6425 33.4325 60.2635 33.0962 60.713 32.58C61.1624 32.0637 61.41 31.4023 61.41 30.7178C61.41 30.0333 61.1624 29.3719 60.713 28.8557C60.2635 28.3394 59.6425 28.0031 58.9645 27.9089C58.2865 27.8146 57.5973 27.9688 57.0241 28.3429C56.4509 28.717 56.0323 29.2858 55.8456 29.9444H52.3769C52.1718 29.9446 51.9752 30.0262 51.8302 30.1712C51.6852 30.3162 51.6037 30.5128 51.6034 30.7178V32.3116C50.5724 32.1403 49.5163 32.1973 48.5097 32.4784C48.3587 32.1616 48.175 31.8644 47.9941 31.5653V25.0028L51.3231 23.3378C51.7894 23.8464 52.4241 24.169 53.1098 24.2461C53.7955 24.3231 54.4859 24.1493 55.0534 23.7568C55.6209 23.3644 56.0272 22.7798 56.1972 22.111C56.3671 21.4423 56.2893 20.7346 55.9781 20.1188C55.6668 19.503 55.1432 19.0206 54.5039 18.7609C53.8647 18.5012 53.153 18.4816 52.5004 18.7058C51.8479 18.93 51.2985 19.3829 50.9539 19.9806C50.6093 20.5784 50.4927 21.2807 50.6256 21.9578L46.8756 23.8328C46.7462 23.8974 46.6374 23.997 46.5617 24.1203C46.486 24.2436 46.4463 24.3856 46.4472 24.5303V29.6106C44.9125 28.0672 42.9256 27.0534 40.7753 26.7166V24.1553C41.4339 23.9686 42.0027 23.5501 42.3768 22.9768C42.7509 22.4036 42.905 21.7144 42.8108 21.0365C42.7166 20.3585 42.3803 19.7374 41.864 19.288C41.3478 18.8385 40.6864 18.5909 40.0019 18.5909C39.3174 18.5909 38.656 18.8385 38.1397 19.288C37.6234 19.7374 37.2872 20.3585 37.1929 21.0365C37.0987 21.7144 37.2529 22.4036 37.627 22.9768C38.0011 23.5501 38.5699 23.9686 39.2284 24.1553V26.5928H39.205C37.1966 26.5908 35.232 27.1803 33.5566 28.2878V24.5303C33.5565 24.3867 33.5164 24.2459 33.4409 24.1237C33.3655 24.0016 33.2575 23.9028 33.1291 23.8384L29.3791 21.9634C29.4135 21.7899 29.4314 21.6135 29.4325 21.4366C29.4382 20.7681 29.2097 20.1188 28.7866 19.6012C28.3635 19.0837 27.7725 18.7306 27.1163 18.6033C26.4601 18.476 25.78 18.5825 25.194 18.9042C24.6081 19.226 24.1533 19.7428 23.9086 20.3649C23.664 20.987 23.6448 21.6751 23.8546 22.3098C24.0643 22.9446 24.4896 23.4858 25.0568 23.8397C25.6239 24.1935 26.297 24.3376 26.9593 24.247C27.6216 24.1563 28.2313 23.8367 28.6825 23.3434L32.0097 25.0084V29.5403C30.7753 30.7465 29.8634 32.2431 29.3575 33.8931C31.1603 34.2225 32.7907 35.1731 33.9655 36.5798C35.1402 37.9864 35.785 39.7602 35.7878 41.5928C35.7794 41.88 35.6595 42.1527 35.4534 42.3528C35.2472 42.553 34.9712 42.665 34.6839 42.665C34.3966 42.665 34.1206 42.553 33.9144 42.3528C33.7083 42.1527 33.5884 41.88 33.58 41.5928C33.5786 40.175 33.0417 38.81 32.077 37.771C31.1122 36.732 29.7907 36.0957 28.3769 35.9894C28.388 35.9517 28.3958 35.9131 28.4003 35.8741V30.7178C28.4001 30.5128 28.3185 30.3162 28.1735 30.1712C28.0285 30.0262 27.8319 29.9446 27.6269 29.9444H24.1581C23.9714 29.2858 23.5529 28.717 22.9796 28.3429C22.4064 27.9688 21.7172 27.8146 21.0393 27.9089C20.3613 28.0031 19.7402 28.3394 19.2908 28.8557C18.8413 29.3719 18.5938 30.0333 18.5938 30.7178C18.5938 31.4023 18.8413 32.0637 19.2908 32.58C19.7402 33.0962 20.3613 33.4325 21.0393 33.5268C21.7172 33.621 22.4064 33.4668 22.9796 33.0927C23.5529 32.7186 23.9714 32.1498 24.1581 31.4913H26.8572V35.8741C26.8615 35.9412 26.8747 36.0074 26.8966 36.0709C25.6158 36.319 24.4611 37.0044 23.6301 38.01C22.7991 39.0156 22.3434 40.2788 22.341 41.5833C22.3387 42.8878 22.7899 44.1526 23.6173 45.1612C24.4448 46.1697 25.597 46.8593 26.8769 47.1119C26.8668 47.1465 26.8596 47.182 26.8553 47.2178V50.5694H24.1581C23.9714 49.9108 23.5529 49.342 22.9796 48.9679C22.4064 48.5938 21.7172 48.4396 21.0393 48.5339C20.3613 48.6281 19.7402 48.9644 19.2908 49.4807C18.8413 49.9969 18.5938 50.6583 18.5938 51.3428C18.5938 52.0273 18.8413 52.6887 19.2908 53.205C19.7402 53.7212 20.3613 54.0575 21.0393 54.1518C21.7172 54.246 22.4064 54.0918 22.9796 53.7177C23.5529 53.3436 23.9714 52.7748 24.1581 52.1163H27.6269C27.8319 52.116 28.0285 52.0344 28.1735 51.8895C28.3185 51.7445 28.4001 51.5479 28.4003 51.3428V47.2178H32.0097V54.9897L28.6806 56.6547C28.2143 56.1461 27.5797 55.8235 26.894 55.7465C26.2083 55.6694 25.5179 55.8432 24.9503 56.2357C24.3828 56.6281 23.9765 57.2128 23.8066 57.8815C23.6366 58.5502 23.7144 59.2579 24.0257 59.8737C24.3369 60.4896 24.8606 60.9719 25.4998 61.2316C26.1391 61.4914 26.8508 61.5109 27.5033 61.2867C28.1559 61.0625 28.7052 60.6097 29.0499 60.0119C29.3945 59.4141 29.5111 58.7118 29.3781 58.0347L33.1281 56.1597C33.2565 56.0954 33.3645 55.9966 33.44 55.8744C33.5155 55.7522 33.5555 55.6114 33.5556 55.4678V47.2178H39.2275V55.8428C38.5689 56.0295 38.0001 56.4481 37.626 57.0213C37.2519 57.5945 37.0978 58.2837 37.192 58.9617C37.2862 59.6397 37.6225 60.2607 38.1388 60.7102C38.655 61.1596 39.3164 61.4072 40.0009 61.4072C40.6854 61.4072 41.3468 61.1596 41.8631 60.7102C42.3794 60.2607 42.7156 59.6397 42.8099 58.9617C42.9041 58.2837 42.7499 57.5945 42.3758 57.0213C42.0017 56.4481 41.4329 56.0295 40.7744 55.8428V47.2178H46.4462V55.4678C46.4463 55.6114 46.4864 55.7522 46.5619 55.8744C46.6373 55.9966 46.7453 56.0954 46.8737 56.1597L50.6237 58.0347C50.5893 58.2082 50.5714 58.3846 50.5703 58.5616C50.5646 59.23 50.7931 59.8794 51.2162 60.3969C51.6393 60.9145 52.2303 61.2675 52.8865 61.3948C53.5427 61.5222 54.2229 61.4157 54.8088 61.0939C55.3947 60.7721 55.8495 60.2553 56.0942 59.6332C56.3388 59.0112 56.358 58.323 56.1482 57.6883C55.9385 57.0536 55.5132 56.5123 54.946 56.1585C54.3789 55.8046 53.7058 55.6605 53.0435 55.7511C52.3812 55.8418 51.7715 56.1615 51.3203 56.6547L47.9941 54.9897V47.2178H50.455C50.8396 47.2157 51.2235 47.1844 51.6034 47.1241V50.3116C51.6037 50.5166 51.6852 50.7132 51.8302 50.8582C51.9752 51.0032 52.1718 51.0848 52.3769 51.085H55.8456C55.9905 51.591 56.2736 52.0465 56.6631 52.4005C57.0526 52.7545 57.5331 52.9928 58.0505 53.0888C58.568 53.1848 59.102 53.1345 59.5925 52.9438C60.0831 52.753 60.5107 52.4292 60.8273 52.0088C61.144 51.5884 61.3371 51.0881 61.3851 50.5639C61.4331 50.0398 61.334 49.5127 61.0989 49.0418C60.8638 48.5709 60.5021 48.1749 60.0544 47.8982C59.6067 47.6216 59.0907 47.4752 58.5644 47.4756ZM58.5644 29.4288C58.8193 29.4288 59.0686 29.5044 59.2805 29.646C59.4925 29.7876 59.6577 29.989 59.7553 30.2245C59.8529 30.4601 59.8784 30.7192 59.8287 30.9693C59.7789 31.2194 59.6562 31.449 59.4759 31.6293C59.2956 31.8096 59.0659 31.9324 58.8159 31.9821C58.5658 32.0318 58.3066 32.0063 58.0711 31.9088C57.8355 31.8112 57.6342 31.646 57.4926 31.434C57.3509 31.222 57.2753 30.9728 57.2753 30.7178C57.2758 30.3761 57.4118 30.0485 57.6534 29.8069C57.8951 29.5652 58.2226 29.4293 58.5644 29.4288ZM53.4081 20.1475C53.6631 20.1475 53.9123 20.2231 54.1243 20.3648C54.3363 20.5064 54.5015 20.7077 54.5991 20.9433C54.6966 21.1788 54.7222 21.438 54.6724 21.6881C54.6227 21.9381 54.4999 22.1678 54.3196 22.3481C54.1393 22.5284 53.9097 22.6511 53.6596 22.7009C53.4095 22.7506 53.1504 22.7251 52.9148 22.6275C52.6793 22.5299 52.4779 22.3647 52.3363 22.1527C52.1947 21.9407 52.1191 21.6915 52.1191 21.4366C52.1196 21.0948 52.2555 20.7672 52.4972 20.5256C52.7388 20.284 53.0664 20.148 53.4081 20.1475ZM26.5956 22.7256C26.3407 22.7256 26.0914 22.65 25.8795 22.5084C25.6675 22.3667 25.5022 22.1654 25.4047 21.9299C25.3071 21.6943 25.2816 21.4351 25.3313 21.1851C25.3811 20.935 25.5038 20.7053 25.6841 20.5251C25.8644 20.3448 26.0941 20.222 26.3441 20.1723C26.5942 20.1225 26.8534 20.1481 27.0889 20.2456C27.3245 20.3432 27.5258 20.5084 27.6674 20.7204C27.8091 20.9324 27.8847 21.1816 27.8847 21.4366C27.8842 21.7783 27.7482 22.1059 27.5066 22.3475C27.2649 22.5892 26.9373 22.7251 26.5956 22.7256ZM21.4394 32.0069C21.1844 32.0069 20.9352 31.9313 20.7232 31.7896C20.5112 31.648 20.346 31.4467 20.2484 31.2111C20.1509 30.9756 20.1253 30.7164 20.1751 30.4663C20.2248 30.2163 20.3476 29.9866 20.5279 29.8063C20.7081 29.626 20.9378 29.5033 21.1879 29.4535C21.4379 29.4038 21.6971 29.4293 21.9327 29.5269C22.1682 29.6244 22.3695 29.7897 22.5112 30.0017C22.6528 30.2136 22.7284 30.4629 22.7284 30.7178C22.7279 31.0595 22.592 31.3871 22.3503 31.6288C22.1087 31.8704 21.7811 32.0064 21.4394 32.0069ZM21.4394 52.6319C21.1844 52.6319 20.9352 52.5563 20.7232 52.4146C20.5112 52.273 20.346 52.0717 20.2484 51.8361C20.1509 51.6006 20.1253 51.3414 20.1751 51.0913C20.2248 50.8413 20.3476 50.6116 20.5279 50.4313C20.7081 50.251 20.9378 50.1283 21.1879 50.0785C21.4379 50.0288 21.6971 50.0543 21.9327 50.1519C22.1682 50.2494 22.3695 50.4147 22.5112 50.6267C22.6528 50.8386 22.7284 51.0879 22.7284 51.3428C22.7279 51.6845 22.592 52.0121 22.3503 52.2538C22.1087 52.4954 21.7811 52.6314 21.4394 52.6319ZM26.5956 59.8506C26.3407 59.8506 26.0914 59.775 25.8795 59.6334C25.6675 59.4917 25.5022 59.2904 25.4047 59.0549C25.3071 58.8193 25.2816 58.5601 25.3313 58.3101C25.3811 58.06 25.5038 57.8303 25.6841 57.6501C25.8644 57.4698 26.0941 57.347 26.3441 57.2973C26.5942 57.2475 26.8534 57.2731 27.0889 57.3706C27.3245 57.4682 27.5258 57.6334 27.6674 57.8454C27.8091 58.0574 27.8847 58.3066 27.8847 58.5616C27.8842 58.9033 27.7482 59.2309 27.5066 59.4725C27.2649 59.7142 26.9373 59.8501 26.5956 59.8506ZM41.2909 58.5616C41.2909 58.8165 41.2153 59.0658 41.0737 59.2777C40.932 59.4897 40.7307 59.6549 40.4952 59.7525C40.2596 59.8501 40.0004 59.8756 39.7504 59.8259C39.5003 59.7761 39.2706 59.6534 39.0904 59.4731C38.9101 59.2928 38.7873 59.0631 38.7376 58.8131C38.6878 58.563 38.7134 58.3038 38.8109 58.0683C38.9085 57.8327 39.0737 57.6314 39.2857 57.4898C39.4977 57.3481 39.7469 57.2725 40.0019 57.2725C40.3436 57.273 40.6712 57.409 40.9128 57.6506C41.1545 57.8923 41.2904 58.2198 41.2909 58.5616ZM40.0019 22.7256C39.7469 22.7256 39.4977 22.65 39.2857 22.5084C39.0737 22.3667 38.9085 22.1654 38.8109 21.9299C38.7134 21.6943 38.6878 21.4351 38.7376 21.1851C38.7873 20.935 38.9101 20.7053 39.0904 20.5251C39.2706 20.3448 39.5003 20.222 39.7504 20.1723C40.0004 20.1225 40.2596 20.1481 40.4952 20.2456C40.7307 20.3432 40.932 20.5084 41.0737 20.7204C41.2153 20.9324 41.2909 21.1816 41.2909 21.4366C41.2904 21.7783 41.1545 22.1059 40.9128 22.3475C40.6712 22.5892 40.3436 22.7251 40.0019 22.7256ZM53.4081 57.2725C53.6631 57.2725 53.9123 57.3481 54.1243 57.4898C54.3363 57.6314 54.5015 57.8327 54.5991 58.0683C54.6966 58.3038 54.7222 58.563 54.6724 58.8131C54.6227 59.0631 54.4999 59.2928 54.3196 59.4731C54.1393 59.6534 53.9097 59.7761 53.6596 59.8259C53.4095 59.8756 53.1504 59.8501 52.9148 59.7525C52.6793 59.6549 52.4779 59.4897 52.3363 59.2777C52.1947 59.0658 52.1191 58.8165 52.1191 58.5616C52.1196 58.2198 52.2555 57.8923 52.4972 57.6506C52.7388 57.409 53.0664 57.273 53.4081 57.2725ZM58.5644 51.6006C58.3094 51.6006 58.0602 51.525 57.8482 51.3834C57.6362 51.2417 57.471 51.0404 57.3734 50.8049C57.2759 50.5693 57.2503 50.3101 57.3001 50.0601C57.3498 49.81 57.4726 49.5803 57.6529 49.4001C57.8331 49.2198 58.0628 49.097 58.3129 49.0473C58.5629 48.9975 58.8221 49.0231 59.0577 49.1206C59.2932 49.2182 59.4945 49.3834 59.6362 49.5954C59.7778 49.8074 59.8534 50.0566 59.8534 50.3116C59.8529 50.6533 59.717 50.9809 59.4753 51.2225C59.2337 51.4642 58.9061 51.6001 58.5644 51.6006Z" fill="#007ABB"/>
</svg>
