<svg width="80" height="80" viewBox="0 0 80 80" fill="none" xmlns="http://www.w3.org/2000/svg">
<rect width="80" height="80" rx="40" fill="white"/>
<path d="M53.5055 57.4631H43.2072V47.0569H46.6105C47.4736 47.0569 47.9837 46.0761 47.4736 45.37L40.8533 36.2094C40.4315 35.6209 39.5586 35.6209 39.1369 36.2094L32.5165 45.37C32.0065 46.0761 32.5067 47.0569 33.3796 47.0569H36.783V57.4631H25.2489C20.0997 57.1787 16 52.363 16 47.1452C16 43.5457 17.9518 40.4072 20.8451 38.7104C20.5803 37.9944 20.443 37.2294 20.443 36.4251C20.443 32.7472 23.4148 29.7754 27.0928 29.7754C27.8872 29.7754 28.6522 29.9127 29.3682 30.1775C31.4965 25.6658 36.0866 22.5371 41.4221 22.5371C48.3269 22.5469 54.0155 27.8334 54.6628 34.5714C59.9689 35.4836 64 40.3973 64 45.9584C64 51.902 59.3707 57.0512 53.5055 57.4631Z" fill="#007ABB"/>
</svg>
