<svg width="80" height="80" viewBox="0 0 80 80" fill="none" xmlns="http://www.w3.org/2000/svg">
<rect width="80" height="80" rx="40" fill="white"/>
<path d="M60.3205 44.842C59.9591 44.4116 59.4827 44.0931 58.9469 43.9236C58.4111 43.7541 57.8381 43.7407 57.295 43.885L49.0375 46.1725C49.3659 47.0482 49.4184 48.0035 49.1877 48.9098C48.9571 49.8162 48.4545 50.6303 47.7475 51.2425C47.2519 51.6661 46.669 51.9752 46.0402 52.1476C45.4114 52.32 44.7524 52.3516 44.11 52.24L38.6478 51.3347C38.4541 51.2997 38.282 51.19 38.1686 51.0291C38.0553 50.8683 38.0097 50.6693 38.0418 50.4752C38.0739 50.281 38.1811 50.1073 38.3403 49.9916C38.4994 49.8758 38.6977 49.8273 38.8923 49.8565L44.38 50.7625C44.9126 50.8398 45.4561 50.7735 45.9545 50.5706C46.4529 50.3677 46.8881 50.0355 47.2153 49.6082C47.5424 49.1809 47.7496 48.6741 47.8155 48.14C47.8814 47.6059 47.8035 47.064 47.59 46.57C47.4255 46.1691 47.174 45.8097 46.8536 45.5178C46.5332 45.226 46.152 45.009 45.7375 44.8825L37.4725 42.31C36.0837 41.8827 34.5935 41.9195 33.2275 42.415L28.735 44.065V57.7525H40.165C40.9649 57.7508 41.7579 57.6034 42.505 57.3175L59.26 49.525C59.6774 49.3263 60.0443 49.0356 60.333 48.6746C60.6218 48.3136 60.8248 47.8918 60.9269 47.4409C61.029 46.9901 61.0275 46.5219 60.9225 46.0717C60.8174 45.6216 60.6116 45.2011 60.3205 44.842ZM24.7825 41.5H21.4525C20.8002 41.5024 20.1755 41.7636 19.7157 42.2263C19.2558 42.6889 18.9984 43.3152 19 43.9675V58.5325C18.9984 59.1848 19.2558 59.8111 19.7157 60.2737C20.1755 60.7364 20.8002 60.9976 21.4525 61H24.7825C25.4348 60.9976 26.0595 60.7364 26.5194 60.2737C26.9792 59.8111 27.2366 59.1848 27.235 58.5325V43.9675C27.2366 43.3152 26.9792 42.6889 26.5194 42.2263C26.0595 41.7636 25.4348 41.5024 24.7825 41.5ZM23.1625 57.6775C22.9357 57.6775 22.7183 57.5874 22.5579 57.4271C22.3976 57.2667 22.3075 57.0493 22.3075 56.8225C22.3075 56.5957 22.3976 56.3783 22.5579 56.2179C22.7183 56.0576 22.9357 55.9675 23.1625 55.9675C23.3893 55.9675 23.6067 56.0576 23.7671 56.2179C23.9274 56.3783 24.0175 56.5957 24.0175 56.8225C24.0175 57.0493 23.9274 57.2667 23.7671 57.4271C23.6067 57.5874 23.3893 57.6775 23.1625 57.6775ZM39.25 19H43.75V24.25H39.25V19Z" fill="#007ABB"/>
<path d="M33.25 38.5H49.75C50.3462 38.4982 50.9175 38.2606 51.339 37.839C51.7606 37.4175 51.9982 36.8462 52 36.25V21.25C51.9982 20.6538 51.7606 20.0825 51.339 19.661C50.9175 19.2394 50.3462 19.0018 49.75 19H45.25V24.25C45.2488 24.6475 45.0904 25.0283 44.8093 25.3093C44.5283 25.5904 44.1475 25.7488 43.75 25.75H39.25C38.8525 25.7488 38.4717 25.5904 38.1907 25.3093C37.9096 25.0283 37.7512 24.6475 37.75 24.25V19H33.25C32.6538 19.0018 32.0825 19.2394 31.661 19.661C31.2394 20.0825 31.0018 20.6538 31 21.25V36.25C31.0018 36.8462 31.2394 37.4175 31.661 37.839C32.0825 38.2606 32.6538 38.4982 33.25 38.5Z" fill="#007ABB"/>
</svg>
