<svg width="80" height="80" viewBox="0 0 80 80" fill="none" xmlns="http://www.w3.org/2000/svg">
<rect width="80" height="80" rx="40" fill="white"/>
<path d="M43 54C43 48.477 47.477 44 53 44C54.423 44 55.774 44.302 57 44.838V32H19V54C19 55.3261 19.5268 56.5979 20.4645 57.5355C21.4021 58.4732 22.6739 59 24 59H44.349C43.4653 57.4819 42.9998 55.7566 43 54ZM45 38.5C45 38.1022 45.158 37.7206 45.4393 37.4393C45.7206 37.158 46.1022 37 46.5 37H49.5C49.8978 37 50.2794 37.158 50.5607 37.4393C50.842 37.7206 51 38.1022 51 38.5V41.5C51 41.8978 50.842 42.2794 50.5607 42.5607C50.2794 42.842 49.8978 43 49.5 43H46.5C46.1022 43 45.7206 42.842 45.4393 42.5607C45.158 42.2794 45 41.8978 45 41.5V38.5ZM31 52.5C31 52.8978 30.842 53.2794 30.5607 53.5607C30.2794 53.842 29.8978 54 29.5 54H26.5C26.1022 54 25.7206 53.842 25.4393 53.5607C25.158 53.2794 25 52.8978 25 52.5V49.5C25 49.1022 25.158 48.7206 25.4393 48.4393C25.7206 48.158 26.1022 48 26.5 48H29.5C29.8978 48 30.2794 48.158 30.5607 48.4393C30.842 48.7206 31 49.1022 31 49.5V52.5ZM31 41.5C31 41.8978 30.842 42.2794 30.5607 42.5607C30.2794 42.842 29.8978 43 29.5 43H26.5C26.1022 43 25.7206 42.842 25.4393 42.5607C25.158 42.2794 25 41.8978 25 41.5V38.5C25 38.1022 25.158 37.7206 25.4393 37.4393C25.7206 37.158 26.1022 37 26.5 37H29.5C29.8978 37 30.2794 37.158 30.5607 37.4393C30.842 37.7206 31 38.1022 31 38.5V41.5ZM41 52.5C41 52.8978 40.842 53.2794 40.5607 53.5607C40.2794 53.842 39.8978 54 39.5 54H36.5C36.1022 54 35.7206 53.842 35.4393 53.5607C35.158 53.2794 35 52.8978 35 52.5V49.5C35 49.1022 35.158 48.7206 35.4393 48.4393C35.7206 48.158 36.1022 48 36.5 48H39.5C39.8978 48 40.2794 48.158 40.5607 48.4393C40.842 48.7206 41 49.1022 41 49.5V52.5ZM41 41.5C41 41.8978 40.842 42.2794 40.5607 42.5607C40.2794 42.842 39.8978 43 39.5 43H36.5C36.1022 43 35.7206 42.842 35.4393 42.5607C35.158 42.2794 35 41.8978 35 41.5V38.5C35 38.1022 35.158 37.7206 35.4393 37.4393C35.7206 37.158 36.1022 37 36.5 37H39.5C39.8978 37 40.2794 37.158 40.5607 37.4393C40.842 37.7206 41 38.1022 41 38.5V41.5ZM57 30V26C57 25.3434 56.8707 24.6932 56.6194 24.0866C56.3681 23.48 55.9998 22.9288 55.5355 22.4645C55.0712 22.0002 54.52 21.6319 53.9134 21.3806C53.3068 21.1293 52.6566 21 52 21H51V23C51 25.206 49.206 27 47 27C44.794 27 43 25.206 43 23V21H33V23C33 25.206 31.206 27 29 27C26.794 27 25 25.206 25 23V21H24C22.6739 21 21.4021 21.5268 20.4645 22.4645C19.5268 23.4021 19 24.6739 19 26V30H57Z" fill="#007ABB"/>
<path d="M31 20C31 18.8954 30.1046 18 29 18C27.8954 18 27 18.8954 27 20V23C27 24.1046 27.8954 25 29 25C30.1046 25 31 24.1046 31 23V20Z" fill="#007ABB"/>
<path d="M49 20C49 18.8954 48.1046 18 47 18C45.8954 18 45 18.8954 45 20V23C45 24.1046 45.8954 25 47 25C48.1046 25 49 24.1046 49 23V20Z" fill="#007ABB"/>
<path d="M53 46C50.8783 46 48.8434 46.8429 47.3431 48.3431C45.8429 49.8434 45 51.8783 45 54C45 56.1217 45.8429 58.1566 47.3431 59.6569C48.8434 61.1571 50.8783 62 53 62C55.1217 62 57.1566 61.1571 58.6569 59.6569C60.1571 58.1566 61 56.1217 61 54C61 51.8783 60.1571 49.8434 58.6569 48.3431C57.1566 46.8429 55.1217 46 53 46ZM56.707 52.707L52.707 56.707C52.6143 56.8002 52.5042 56.8741 52.3829 56.9246C52.2615 56.9751 52.1314 57.001 52 57.001C51.8686 57.001 51.7385 56.9751 51.6171 56.9246C51.4958 56.8741 51.3857 56.8002 51.293 56.707L49.293 54.707C49.1055 54.5195 49.0002 54.2652 49.0002 54C49.0002 53.7348 49.1055 53.4805 49.293 53.293C49.4805 53.1055 49.7348 53.0002 50 53.0002C50.2652 53.0002 50.5195 53.1055 50.707 53.293L52 54.586L55.293 51.293C55.3858 51.2002 55.4961 51.1265 55.6174 51.0763C55.7387 51.026 55.8687 51.0002 56 51.0002C56.1313 51.0002 56.2613 51.026 56.3826 51.0763C56.5039 51.1265 56.6142 51.2002 56.707 51.293C56.7998 51.3858 56.8735 51.4961 56.9237 51.6174C56.974 51.7387 56.9998 51.8687 56.9998 52C56.9998 52.1313 56.974 52.2613 56.9237 52.3826C56.8735 52.5039 56.7998 52.6142 56.707 52.707Z" fill="#007ABB"/>
</svg>
