<svg width="87" height="60" viewBox="0 0 87 60" fill="none" xmlns="http://www.w3.org/2000/svg">
<g clip-path="url(#clip0_10197_493)">
<mask id="mask0_10197_493" style="mask-type:luminance" maskUnits="userSpaceOnUse" x="0" y="8" width="87" height="44">
<path d="M86.6906 8.75H0.746094V51.25H86.6906V8.75Z" fill="white"/>
</mask>
<g mask="url(#mask0_10197_493)">
<path d="M86.6906 8.75H0.746094V51.25H44.1906" fill="#808080"/>
<path d="M43.2456 17.2502V37.2725L35.8788 17.2502H28.5122L22.2788 33.8725C21.5233 29.7168 17.1788 28.2058 13.7788 27.0725C11.5122 26.3168 9.05668 25.3725 9.05668 24.0502C9.05668 23.1058 10.3789 22.1613 12.8345 22.3502C14.5345 22.5391 16.0456 22.5391 19.0678 24.0502L22.09 18.9502C19.2567 17.4391 15.4788 16.6836 12.4567 16.6836C8.86779 16.6836 5.84557 17.8168 3.95668 19.7058C2.63446 21.028 2.06779 22.728 1.87891 24.6168C1.87891 27.2613 2.82336 29.1502 4.90113 30.6613C6.60113 31.7947 8.67891 32.5502 10.5678 33.1168C13.0234 33.8725 14.9122 34.628 14.9122 35.9502C14.7233 37.6502 12.8345 38.028 11.5122 38.028C9.24557 38.2168 7.35668 37.8391 4.52336 36.1391L1.87891 41.2391C4.71224 42.9391 7.73446 43.6947 11.3233 43.6947C13.7788 43.6947 17.5567 42.9391 19.6345 41.0502L19.2567 42.7502H26.4345L27.7567 39.5391C30.59 40.2947 33.8011 40.4836 36.6345 39.5391L37.5788 42.7502H50.4233V35.1947H53.0678C59.6788 35.1947 63.6456 31.9836 63.6456 26.3168C63.6456 19.8947 59.8678 17.2502 51.7456 17.2502H43.2456ZM29.4567 33.8725L32.1011 25.3725H32.29L34.9345 33.8725C33.0456 34.4391 31.1567 34.4391 29.4567 33.8725ZM50.4233 29.528V22.728H52.3122C54.7678 22.728 56.6567 23.4836 56.6567 25.9391C56.6567 28.5836 54.7678 29.528 52.3122 29.528H50.4233Z" fill="white"/>
</g>
</g>
<defs>
<clipPath id="clip0_10197_493">
<rect width="86.25" height="60" fill="white" transform="translate(0.75)"/>
</clipPath>
</defs>
</svg>
