<svg width="153" height="60" viewBox="0 0 153 60" fill="none" xmlns="http://www.w3.org/2000/svg">
<path d="M88.2031 11.7394L94.7379 14.3057L88.2031 16.7334V20.2014L99.3958 15.693V12.9186L88.2031 8.41016V11.7394Z" fill="#808080"/>
<path d="M28.2046 24.6406C25.0762 24.6406 22.782 26.0279 22.5735 28.9409H26.0495V28.8715C26.119 27.9005 27.0228 27.207 27.9961 27.2764C29.317 27.2764 29.9426 28.0392 29.9426 29.3571V29.9812H28.3436C24.9371 29.9812 22.1562 31.0216 22.1562 34.2816V34.4204C22.1562 37.0561 24.103 38.2353 26.4666 38.2353C27.9266 38.3046 29.2473 37.6109 30.0816 36.5011V38.0271H33.6271V29.2877C33.5576 25.9585 31.2635 24.6406 28.2046 24.6406ZM27.4399 35.6689C26.1885 35.6689 25.6324 35.0446 25.6324 34.1429V34.0042C25.6324 32.8251 26.5361 32.3395 28.3436 32.3395H29.8035V33.588C29.873 34.9753 28.6913 35.6689 27.4399 35.6689Z" fill="#808080"/>
<path d="M41.9709 35.5301C40.2328 35.5301 39.3292 34.351 39.3292 31.7154V31.2991C39.3292 28.7327 40.3718 27.4843 41.9709 27.4843C43.2222 27.4843 43.9174 28.3167 44.1259 29.5652H47.602C47.3238 26.1665 44.8212 24.6406 41.9014 24.6406C38.4253 24.6406 35.6445 26.9989 35.6445 31.4379V31.5766C35.6445 36.0156 38.2863 38.2353 41.9014 38.2353C45.4468 38.2353 47.4628 36.085 47.741 33.1719H44.404C44.1259 34.6285 43.2222 35.5301 41.9709 35.5301Z" fill="#808080"/>
<path d="M55.5253 35.5301C53.7875 35.5301 52.8837 34.351 52.8837 31.7154V31.2991C52.8837 28.7327 53.9265 27.4843 55.5253 27.4843C56.7767 27.4843 57.472 28.3167 57.6806 29.5652H61.1565C60.8785 26.1665 58.3757 24.6406 55.4558 24.6406C51.98 24.6406 49.1992 26.9989 49.1992 31.4379V31.5766C49.1992 36.0156 51.841 38.2353 55.4558 38.2353C59.0015 38.2353 61.0175 36.085 61.2261 33.1719H57.9586C57.7501 34.6285 56.7767 35.5301 55.5253 35.5301Z" fill="#808080"/>
<path d="M69.2232 35.5995C67.6243 35.5995 66.6509 34.6979 66.5119 32.3395H74.9933V30.8136C74.9933 26.5133 72.2821 24.6406 69.0147 24.6406C65.4691 24.6406 62.7578 27.0682 62.7578 31.4379V31.7154C62.7578 36.085 65.3301 38.3046 69.0842 38.3046C72.4906 38.3046 74.5763 36.4318 74.9238 33.9349H71.5173C71.3783 34.9753 70.3356 35.7382 69.2232 35.5995ZM69.0147 27.1376C70.4746 27.1376 71.3782 27.9699 71.4478 29.9119H66.5814C66.8596 27.8311 67.9023 27.207 69.0147 27.1376Z" fill="#808080"/>
<path d="M84.8667 24.6407C83.1982 24.5714 81.6688 25.4037 80.9042 26.8602V24.9182H77.2891V37.9579H80.9042V29.9815C80.9042 29.8427 80.9042 29.7734 80.9042 29.6346C80.9737 28.4555 82.0163 27.4845 83.1982 27.5539C84.5191 27.5539 85.1448 28.2475 85.1448 29.7734V37.9579H88.8293V29.2186C88.8293 26.028 87.2304 24.6407 84.8667 24.6407Z" fill="#808080"/>
<path d="M95.6436 33.7945V27.6214H98.1463V24.9163H95.6436V20.9629L92.0287 22.4888V24.9163H90.4297V27.6214H91.9592V34.2106C91.9592 36.8464 93.2801 38.1643 96.1303 38.1643C96.8254 38.1643 97.5207 38.0949 98.2158 37.8868V35.0429C97.7988 35.1816 97.3817 35.251 96.9644 35.251C96.1303 35.251 95.6436 34.7655 95.6436 33.7945Z" fill="#808080"/>
<path d="M108.227 33.0331C108.227 33.1717 108.227 33.2411 108.227 33.3798C108.157 34.559 107.114 35.53 105.933 35.4606C104.612 35.4606 104.056 34.7671 104.056 33.2411V24.918H100.371V33.7267C100.371 36.7785 102.109 38.2351 104.473 38.2351C106.072 38.3045 107.532 37.4722 108.296 36.0156V37.9576H111.981V24.918H108.296L108.227 33.0331Z" fill="#808080"/>
<path d="M118.232 27.2764V24.8486H114.617V37.8884H118.232V31.1604C118.232 29.0102 119.692 28.2474 122.195 28.2474V24.6406C120.387 24.6406 118.788 25.681 118.232 27.2764Z" fill="#808080"/>
<path d="M135.545 30.7444C135.545 26.4439 132.833 24.6406 129.566 24.6406C126.02 24.6406 123.309 27.0682 123.309 31.4379V31.7154C123.309 36.085 125.881 38.3046 129.635 38.3046C133.041 38.3046 135.057 36.4318 135.475 33.9349H132.068C131.79 35.0446 130.747 35.7382 129.635 35.6689C128.036 35.6689 127.063 34.7671 126.923 32.4089H135.545V30.7444ZM127.063 29.9119C127.341 27.7617 128.383 27.1376 129.566 27.1376C131.026 27.1376 131.93 27.9699 131.998 29.9119H127.063Z" fill="#808080"/>
</svg>
