<svg width="139" height="60" viewBox="0 0 139 60" fill="none" xmlns="http://www.w3.org/2000/svg">
<g clip-path="url(#clip0_10197_524)">
<path d="M96.4054 19.6074H92.0234V40.4597H96.4054V19.6074Z" fill="#808080"/>
<path d="M104.093 13.0078H99.7109V40.4331H104.093V13.0078Z" fill="#808080"/>
<path d="M131.514 13.0078V19.6061H129.348V23.9881H131.514V40.4079H135.895V23.9881H138.086V19.6061H135.895V13.0078H131.514Z" fill="#808080"/>
<path d="M64.3717 32.2245C64.5228 31.5194 64.5983 30.7892 64.5983 30.0335C64.5983 24.2917 59.9142 19.6074 54.1722 19.6074C48.4303 19.6074 43.7461 24.2917 43.7461 30.0335C43.7461 35.7755 48.4303 40.4597 54.1722 40.4597C58.3528 40.4597 61.9541 37.9917 63.6162 34.4155H58.2772C57.1943 35.4229 55.7588 36.0525 54.1722 36.0525C51.6287 36.0525 49.4628 34.4659 48.5815 32.2245H64.3717ZM54.1722 24.0147C56.7158 24.0147 58.8816 25.6013 59.7631 27.8427H48.5815C49.4628 25.6013 51.6287 24.0147 54.1722 24.0147Z" fill="#808080"/>
<path d="M117.817 36.0274C114.492 36.0274 111.798 33.3327 111.798 30.0084C111.798 26.6842 114.492 23.9894 117.817 23.9894C121.141 23.9894 123.836 26.6842 123.836 30.0084C123.81 33.3327 121.116 36.0274 117.817 36.0274ZM117.817 19.6074C112.075 19.6074 107.391 24.2917 107.391 30.0335C107.391 35.7755 112.075 40.4597 117.817 40.4597C123.559 40.4597 128.243 35.7755 128.243 30.0335C128.218 24.2665 123.559 19.6074 117.817 19.6074Z" fill="#808080"/>
<path d="M78.3246 19.6055C72.5826 19.6055 67.8984 24.2896 67.8984 30.0316V47.0055H72.2803V38.5185C73.9928 39.7273 76.0579 40.4577 78.3246 40.4577C84.0664 40.4577 88.7507 35.7735 88.7507 30.0316C88.7507 24.2896 84.0664 19.6055 78.3246 19.6055ZM78.3246 36.0253C75.0002 36.0253 72.3056 33.3306 72.3056 30.0063C72.3056 26.6821 75.0002 23.9875 78.3246 23.9875C81.6488 23.9875 84.3434 26.6821 84.3434 30.0063C84.3183 33.3306 81.6236 36.0253 78.3246 36.0253Z" fill="#808080"/>
<path d="M19.9042 13.0088C15.1445 12.7569 10.9639 15.4013 8.97434 19.3299C8.62178 20.0099 9.40248 20.7403 10.0824 20.3373C11.8201 19.2795 13.8601 18.6751 16.0511 18.6751C22.3973 18.6751 27.5601 23.8379 27.5601 30.1841V30.2094C27.5601 30.99 28.5675 31.3174 28.9956 30.6626C30.2043 28.7486 30.8843 26.457 30.7585 23.9889C30.4813 18.1211 25.7468 13.3361 19.9042 13.0088Z" fill="#808080"/>
<path d="M35.2354 41.7935C37.8545 37.8145 37.6531 32.8532 35.2103 29.1764C34.7821 28.5216 33.7748 28.849 33.8 29.6297C33.8503 31.6696 33.3466 33.7346 32.2638 35.6235C29.0905 41.1135 22.0391 43.0024 16.549 39.8291C16.549 39.8291 16.5238 39.8291 16.5238 39.804C15.8439 39.401 15.0631 40.1314 15.4158 40.8114C16.4734 42.826 18.1356 44.5385 20.3014 45.6719C25.5396 48.3917 32.0371 46.7044 35.2354 41.7935Z" fill="#808080"/>
<path d="M2.62671 40.6592C4.76734 44.9153 9.17451 47.207 13.5566 46.9552C14.3372 46.9048 14.5638 45.8722 13.884 45.4945C12.0959 44.5123 10.5345 43.0517 9.45154 41.1628C6.27838 35.6728 8.16716 28.6213 13.6572 25.4481C13.6572 25.4481 13.6825 25.4481 13.6825 25.423C14.3625 25.0452 14.1357 24.0127 13.3551 23.9623C11.0885 23.8616 8.77158 24.4408 6.68131 25.7503C1.77046 28.9487 -0.0176001 35.421 2.62671 40.6592Z" fill="#808080"/>
</g>
<defs>
<clipPath id="clip0_10197_524">
<rect width="137.5" height="60" fill="white" transform="translate(0.75)"/>
</clipPath>
</defs>
</svg>
