<svg width="138" height="60" viewBox="0 0 138 60" fill="none" xmlns="http://www.w3.org/2000/svg">
<g clip-path="url(#clip0_10197_534)">
<path d="M95.9054 19.6074H91.5234V40.4597H95.9054V19.6074Z" fill="#808080"/>
<path d="M103.593 13.0078H99.2109V40.4331H103.593V13.0078Z" fill="#808080"/>
<path d="M131.014 13.0078V19.6061H128.848V23.9881H131.014V40.4079H135.395V23.9881H137.586V19.6061H135.395V13.0078H131.014Z" fill="#808080"/>
<path d="M63.8717 32.2245C64.0228 31.5194 64.0983 30.7892 64.0983 30.0335C64.0983 24.2917 59.4142 19.6074 53.6722 19.6074C47.9303 19.6074 43.2461 24.2917 43.2461 30.0335C43.2461 35.7755 47.9303 40.4597 53.6722 40.4597C57.8528 40.4597 61.4541 37.9917 63.1162 34.4155H57.7772C56.6943 35.4229 55.2588 36.0525 53.6722 36.0525C51.1287 36.0525 48.9628 34.4659 48.0815 32.2245H63.8717ZM53.6722 24.0147C56.2158 24.0147 58.3816 25.6013 59.2631 27.8427H48.0815C48.9628 25.6013 51.1287 24.0147 53.6722 24.0147Z" fill="#808080"/>
<path d="M117.317 36.0274C113.992 36.0274 111.298 33.3327 111.298 30.0084C111.298 26.6842 113.992 23.9894 117.317 23.9894C120.641 23.9894 123.336 26.6842 123.336 30.0084C123.31 33.3327 120.616 36.0274 117.317 36.0274ZM117.317 19.6074C111.575 19.6074 106.891 24.2917 106.891 30.0335C106.891 35.7755 111.575 40.4597 117.317 40.4597C123.059 40.4597 127.743 35.7755 127.743 30.0335C127.718 24.2665 123.059 19.6074 117.317 19.6074Z" fill="#808080"/>
<path d="M77.8246 19.6055C72.0826 19.6055 67.3984 24.2896 67.3984 30.0316V47.0055H71.7803V38.5185C73.4928 39.7273 75.5579 40.4577 77.8246 40.4577C83.5664 40.4577 88.2507 35.7735 88.2507 30.0316C88.2507 24.2896 83.5664 19.6055 77.8246 19.6055ZM77.8246 36.0253C74.5002 36.0253 71.8056 33.3306 71.8056 30.0063C71.8056 26.6821 74.5002 23.9875 77.8246 23.9875C81.1488 23.9875 83.8434 26.6821 83.8434 30.0063C83.8183 33.3306 81.1236 36.0253 77.8246 36.0253Z" fill="#808080"/>
<path d="M19.4042 13.0088C14.6445 12.7569 10.4639 15.4013 8.47434 19.3299C8.12178 20.0099 8.90248 20.7403 9.58244 20.3373C11.3201 19.2795 13.3601 18.6751 15.5511 18.6751C21.8973 18.6751 27.0601 23.8379 27.0601 30.1841V30.2094C27.0601 30.99 28.0675 31.3174 28.4956 30.6626C29.7043 28.7486 30.3843 26.457 30.2585 23.9889C29.9813 18.1211 25.2468 13.3361 19.4042 13.0088Z" fill="#808080"/>
<path d="M34.7354 41.7935C37.3545 37.8145 37.1531 32.8532 34.7103 29.1764C34.2821 28.5216 33.2748 28.849 33.3 29.6297C33.3503 31.6696 32.8466 33.7346 31.7638 35.6235C28.5905 41.1135 21.5391 43.0024 16.049 39.8291C16.049 39.8291 16.0238 39.8291 16.0238 39.804C15.3439 39.401 14.5631 40.1314 14.9158 40.8114C15.9734 42.826 17.6356 44.5385 19.8014 45.6719C25.0396 48.3917 31.5371 46.7044 34.7354 41.7935Z" fill="#808080"/>
<path d="M2.12671 40.6592C4.26734 44.9153 8.67451 47.207 13.0566 46.9552C13.8372 46.9048 14.0638 45.8722 13.384 45.4945C11.5959 44.5123 10.0345 43.0517 8.95154 41.1628C5.77838 35.6728 7.66716 28.6213 13.1572 25.4481C13.1572 25.4481 13.1825 25.4481 13.1825 25.423C13.8625 25.0452 13.6357 24.0127 12.8551 23.9623C10.5885 23.8616 8.27158 24.4408 6.18131 25.7503C1.27046 28.9487 -0.5176 35.421 2.12671 40.6592Z" fill="#808080"/>
</g>
<defs>
<clipPath id="clip0_10197_534">
<rect width="137.5" height="60" fill="white" transform="translate(0.25)"/>
</clipPath>
</defs>
</svg>
